/* XPM */
static char *freeimage[] = {
/* width height num_colors chars_per_pixel */
"16 16 99 2",
/* colors */
"   c #ffffff",
" . c #797fa7",
" X c #454e85",
" o c #363f7c",
" O c #3f487e",
" + c #757ca3",
" @ c #606797",
" # c #374075",
" $ c #5d6285",
" % c #878aa0",
" & c #717698",
" * c #6d749a",
" = c #5a6294",
" - c #4a5289",
" ; c #484e77",
" : c #9a9b9d",
" > c #9ea0aa",
" , c #252f6e",
" < c #192468",
" 1 c #a5abb7",
" 2 c #e7e7e9",
" 3 c #e8e9ee",
" 4 c #606897",
" 5 c #121d64",
" 6 c #30386d",
" 7 c #192467",
" 8 c #09155f",
" 9 c #2d3774",
" 0 c #a5a9c2",
" q c #8f9bb6",
" w c #717e9c",
" e c #353e77",
" r c #808291",
" t c #8e91a1",
" y c #abaebf",
" u c #c1c3cf",
" i c #cbcdd8",
" p c #dddee6",
" a c #f1f1f2",
" s c #97a1b6",
" d c #627090",
" f c #38417a",
" g c #5a6082",
" h c #b3b3b3",
" j c #59608b",
" k c #0c1860",
" l c #a4a7b7",
" z c #e0e1e6",
" x c #ececec",
" c c #d8d8dc",
" v c #102962",
" b c #6d74a0",
" n c #abadb7",
" m c #525a8e",
" M c #e5e5e5",
" N c #e9eaea",
" B c #c7c9d2",
" V c #9699a0",
" C c #082360",
" Z c #555d77",
" A c #b7b9c9",
" S c #f7f7f7",
" D c #d4d4d4",
" F c #a4a4a4",
" G c #69738b",
" H c #4e576f",
" J c #263171",
" K c #152166",
" L c #f8f8f9",
" P c #cccdce",
" I c #b8b8b8",
" U c #2e426e",
" Y c #3f465d",
" T c #6a719e",
" R c #8186a4",
" E c #686f81",
" W c #0f275e",
" Q c #303553",
" ! c #4a5387",
" ~ c #666d9a",
" ^ c #696e8f",
" / c #727885",
" ( c #29344e",
" ) c #293267",
" _ c #7b81a7",
" ` c #bebebe",
" ' c #4a5879",
" ] c #1c2d53",
" [ c #242a4d",
" { c #304675",
" } c #1a3269",
" | c #10285e",
".  c #2b3650",
".. c #576092",
".X c #63698a",
".o c #5b637d",
".O c #434b62",
".+ c #333857",
".@ c #293268",
/* pixels */
"           . X o O +            ",
"       @ # $ % & @ * O =        ",
"     - ; : > , < 1 2 3 + X      ",
"   4 5 6 # 7 8 9 X X 0 q w =    ",
"   e r t 7 7 y u i p a s d f    ",
" . g h j k l z x a 3 c 1 v $ b  ",
" X t n 8 m M N a 3 B n V C Z f  ",
" o n j 8 A 3 S S D l F G C H J  ",
" X l 7 K 3 a L 3 P I F U C Y f  ",
" + T 8 5 z L z R > F E C W Q T  ",
"   X ! K f ~ f ^ F / v C ( )    ",
"   = _ 3 3 D ` V ' C C ] [ m    ",
"     X + w { } C C |.  [ X      ",
"      .. O.X.o H.O.+.@ m        ",
"           T o J o ~            ",
"                                "
};
