/* XPM */
static char *freeimage[] = {
/* width height num_colors chars_per_pixel */
"32 32 402 2",
/* colors */
"   c #ffffff",
" . c #5e6696",
" X c #464f86",
" o c #454e87",
" O c #454e86",
" + c #5b6395",
" @ c #4d568b",
" # c #3d4680",
" $ c #3b4580",
" % c #39437e",
" & c #2d3776",
" * c #1b266b",
" = c #1a256a",
" - c #2b3675",
" ; c #39427e",
" : c #3b447f",
" > c #3e4781",
" , c #475087",
" < c #38417d",
" 1 c #101c62",
" 2 c #3c4476",
" 3 c #6d728f",
" 4 c #9295a6",
" 5 c #aaacb6",
" 6 c #b0b2bc",
" 7 c #a4a7b7",
" 8 c #8489a6",
" 9 c #505889",
" 0 c #152166",
" q c #343e7a",
" w c #3f4882",
" e c #525b8e",
" r c #131e64",
" t c #4f557a",
" y c #95969b",
" u c #adadad",
" i c #b9b9b9",
" p c #777c9a",
" a c #2b3571",
" s c #222c6d",
" d c #182367",
" f c #464e83",
" g c #c5c6d0",
" h c #dadbde",
" j c #858aab",
" k c #1a2569",
" l c #414b83",
" z c #242d67",
" x c #7e808a",
" c c #9e9e9e",
" v c #acacac",
" b c #b6b6b7",
" n c #585f89",
" m c #09155f",
" M c #0b1760",
" N c #757b9f",
" B c #ddddde",
" V c #e4e4e4",
" C c #e8e8e8",
" Z c #ececec",
" A c #dadbe2",
" S c #485187",
" D c #313b79",
" F c #3a437e",
" G c #2d356a",
" H c #898a8c",
" J c #9d9d9d",
" K c #ababab",
" L c #b4b4b5",
" P c #485080",
" I c #a1a5b9",
" U c #dfdfdf",
" Y c #f0f0f0",
" T c #c8cdd9",
" R c #d6dae3",
" E c #606796",
" W c #303a78",
" Q c #5f6696",
" ! c #464f87",
" ~ c #152063",
" ^ c #1b2566",
" / c #1c2767",
" ( c #1e2969",
" ) c #192467",
" _ c #141f65",
" ` c #242e6f",
" ' c #242f6f",
" ] c #232e6f",
" [ c #202a6d",
" { c #525a8d",
" } c #f0f0f4",
" | c #485c89",
".  c #cdd1d9",
".. c #3f4982",
".X c #4e578d",
".o c #3e4881",
".O c #111d63",
".+ c #202a67",
".@ c #222c6a",
".# c #242e6c",
".$ c #27316e",
".% c #0c1861",
".& c #152066",
".* c #353e79",
".= c #38427b",
".- c #3a447d",
".; c #3e477f",
".: c #485186",
".> c #545c8e",
"., c #7178a1",
".< c #f2f2f5",
".1 c #f9f9f9",
".2 c #7d8aa8",
".3 c #374c7c",
".4 c #bec0c7",
".5 c #1a2568",
".6 c #4e568b",
".7 c #4e5478",
".8 c #9a9a9a",
".9 c #a8a8a8",
".0 c #b5b5b5",
".q c #83869f",
".w c #0e1a62",
".e c #a9acbd",
".r c #dedede",
".t c #e3e3e3",
".y c #e7e7e7",
".u c #ebebeb",
".i c #efefef",
".p c #f4f4f4",
".a c #fafafa",
".s c #ededed",
".d c #b0b6c4",
".f c #082360",
".g c #75819a",
".h c #757a97",
".j c #2f3978",
".k c #424b84",
".l c #111c62",
".z c #909196",
".x c #a7a7a7",
".c c #b4b4b4",
".v c #a9abb4",
".b c #858aa8",
".n c #f1f2f2",
".m c #f3f3f5",
".M c #f3f4f6",
".N c #eeeeee",
".B c #e0e0e0",
".V c #c8cacd",
".C c #092460",
".Z c #1a3369",
".A c #a8a9ac",
".S c #182365",
".D c #3b4374",
".F c #a6a6a6",
".G c #b3b3b3",
".H c #bfbfbf",
".J c #40487d",
".K c #4d5587",
".L c #dddddd",
".P c #eaeaea",
".I c #f1f1f2",
".U c #f0f0f3",
".Y c #ebebf0",
".T c #d7d9e0",
".R c #cecfd5",
".E c #d4d4d4",
".W c #c6c6c7",
".Q c #122c65",
".! c #747c8e",
".~ c #464d77",
".^ c #3d4781",
"./ c #7e84ab",
".( c #6a6f8c",
".) c #8d91a7",
"._ c #c8cad1",
".` c #e2e2e2",
".' c #e6e6e6",
".] c #ebecf1",
".[ c #d9dae1",
".{ c #c4c5ce",
".} c #b0b2bd",
".| c #c3c4c5",
"X  c #bcbcbd",
"X. c #132c65",
"XX c #445476",
"Xo c #64687e",
"XO c #353f7c",
"X+ c #4e578c",
"X@ c #485188",
"X# c #2e3877",
"X$ c #8e91a1",
"X% c #bebebe",
"X& c #c5c5c5",
"X* c #2b3572",
"X= c #767ca0",
"X- c #f3f3f3",
"X; c #f4f4f5",
"X: c #ececf1",
"X> c #c5c7d0",
"X, c #b1b3be",
"X< c #9ea0ad",
"X1 c #b5b5b8",
"X2 c #acadb0",
"X3 c #0a2561",
"X4 c #2a3e6a",
"X5 c #70727b",
"X6 c #a6a8b2",
"X7 c #c6c6c6",
"X8 c #9194aa",
"X9 c #101c63",
"X0 c #d2d3d9",
"Xq c #f2f2f2",
"Xw c #f8f8f8",
"Xe c #f9f9fa",
"Xr c #dcdde4",
"Xt c #c6c8d1",
"Xy c #b2b4bf",
"Xu c #9fa1ae",
"Xi c #9496a3",
"Xp c #b2b2b3",
"Xa c #898e99",
"Xs c #1e3465",
"Xd c #707174",
"Xf c #0d1961",
"Xg c #aeb0b9",
"Xh c #cccccc",
"Xj c #444c80",
"Xk c #4f5789",
"Xl c #e9e9e9",
"Xz c #fcfcfc",
"Xx c #dbdcdf",
"Xc c #b7b9c2",
"Xv c #a0a2af",
"Xb c #989aa6",
"Xn c #abacae",
"Xm c #5b6782",
"XM c #1d3363",
"XN c #666669",
"XB c #2c3675",
"XV c #a4a6b5",
"XC c #c5c6ca",
"XZ c #8b90ae",
"XA c #f7f7f7",
"XS c #d8d8d8",
"XD c #bebfbf",
"XF c #999999",
"XG c #263b6b",
"XH c #253761",
"XJ c #54565e",
"XK c #182368",
"XL c #5a6293",
"XP c #878ca7",
"XI c #9b9eb3",
"XU c #abafc3",
"XY c #f1f1f1",
"XT c #f5f5f5",
"XR c #d9d9d9",
"XE c #b5b7c0",
"XW c #bfbfc0",
"XQ c #b6b6b6",
"X! c #6d7483",
"X~ c #323f5d",
"X^ c #3f4256",
"X/ c #333d7a",
"X( c #4c548a",
"X) c #555c8b",
"X_ c #8489a7",
"X` c #969ab7",
"X' c #f6f6f6",
"X] c #fbfbfb",
"X[ c #d6d6d8",
"X{ c #757a9c",
"X} c #797e9a",
"X| c #b7b7b7",
"o  c #a9a9a9",
"o. c #9b9b9b",
"oX c #8c8c8e",
"oo c #213668",
"oO c #08235f",
"o+ c #434853",
"o@ c #262d55",
"o# c #777ea6",
"o$ c #172267",
"o% c #8e92ae",
"o& c #ced0dc",
"o* c #e4e4e6",
"o= c #9a9eb5",
"o- c #2e3874",
"o; c #394278",
"o: c #aaaaaa",
"o> c #9c9c9c",
"o, c #8f8f8f",
"o< c #3f4f71",
"o1 c #172c5b",
"o2 c #454546",
"o3 c #101a5b",
"o4 c #404983",
"o5 c #343e7b",
"o6 c #7a80a4",
"o7 c #273272",
"o8 c #0b1660",
"o9 c #37417c",
"o0 c #141f64",
"oq c #a3a4ad",
"ow c #909090",
"oe c #4a5775",
"or c #363c4b",
"ot c #2a2f48",
"oy c #2a3474",
"ou c #404a83",
"oi c #1b266a",
"op c #caccd7",
"oa c #9a9eba",
"os c #8a90b1",
"od c #999ebc",
"of c #a3a7c1",
"og c #a4a8be",
"oh c #9ca0b6",
"oj c #9397ad",
"ok c #9194a8",
"ol c #a7a8af",
"oz c #8a8c8f",
"ox c #3a4b70",
"oc c #213153",
"ov c #38393c",
"ob c #0e1959",
"on c #525a8e",
"om c #495287",
"oM c #f1f1f3",
"oN c #d1d1d1",
"oB c #bababa",
"oV c #999a9d",
"oC c #5d6880",
"oZ c #172f65",
"oA c #1a2d56",
"oS c #3a3a3c",
"oD c #181f4f",
"oF c #3a447f",
"oG c #3b457f",
"oH c #636b99",
"oJ c #dcdfe7",
"oK c #7381a2",
"oL c #7582a1",
"oP c #8c96ab",
"oI c #9097a9",
"oU c #828b9e",
"oY c #67728d",
"oT c #3e5077",
"oR c #112b63",
"oE c #223154",
"oW c #3b3b3d",
"oQ c #1c224b",
"o! c #293373",
"o~ c #39427d",
"o^ c #4c5589",
"o/ c #cbcdd3",
"o( c #7a85a0",
"o) c #1a3269",
"o_ c #182d5c",
"o` c #383f4e",
"o' c #3b3b3f",
"o] c #182050",
"o[ c #3e4882",
"o{ c #1c276a",
"o} c #7e829f",
"o| c #b3b4b7",
"O  c #7c8496",
"O. c #48577a",
"OX c #2b3f6c",
"Oo c #1f3566",
"OO c #1e3464",
"O+ c #263964",
"O@ c #354261",
"O# c #474d58",
"O$ c #4a4a4b",
"O% c #2d314b",
"O& c #0f195a",
"O* c #38427d",
"O= c #414a83",
"O- c #2d3876",
"O; c #1a2567",
"O: c #4d537d",
"O> c #6c7086",
"O, c #797b84",
"O< c #797a7d",
"O1 c #6f6f72",
"O2 c #5c5d66",
"O3 c #44485c",
"O4 c #2a3058",
"O5 c #101b5b",
"O6 c #323c7a",
"O7 c #162167",
"O8 c #303b78",
"O9 c #3c4680",
"O0 c #7b82a9",
"Oq c #4b5389",
"Ow c #424c84",
"Oe c #424b83",
"Or c #495288",
"Ot c #767ca5",
/* pixels */
"                                                                ",
"                                                                ",
"                           . X o O X +                          ",
"                     @ # $ % & * = - ; : > ,                    ",
"                 . # < 1 2 3 4 5 6 7 8 9 0 q w e                ",
"               w O r t y u i p a s d f g h j k l $              ",
"             : < z x c v b n m m M N B V C Z A S D F            ",
"           w < G H J K L P m m 0 I U V C Z Y T R E W :          ",
"         Q ! m ~ ^ / ( ) m m m _ ` ' ] [ k { } |.  f...X        ",
"        .o.O.+.@.#.$.% m m.&.*.=.-.;.:.>.,.<.1.2.3.4.5 l        ",
"      .6 ;.7.8.9.0.q m m.w.e.r.t.y.u.i.p.a.a.s.d.f.g.h.j.k      ",
"       w.l.z.x.c.v _ m m.b.r.t.y.u.i.n.m.M.N.B.V.C.Z.A.S w      ",
"       >.D.F.G.H.J m m.K.L.t.y.P.N.I.U.Y.T.R.E.W.Q.f.!.~.^./    ",
"     . $.(.G.H.) m m.&._.`.'.P.N.n.U.].[.{.}.|X X..fXXXoXOX+    ",
"    X@X#X$X%X&X* m mX=.`.'.P.NX-X;X: AX>X,X<X1X2X3.fX4X5 = X    ",
"    X@ *X6X7X8 m mX9X0.'.P.NXqXwXeXrXtXyXuXiXpXa.f.fXsXdXf w    ",
"     , =XgXhXj m mXk.'Xl.sXqXwXzX-XxXcXvXbXn.FXm.f.fXMXN.% w    ",
"     SXBXVXCXf m mXZXl.sXqXAXz.p.'XSXhXD.0.xXFXG.f.fXHXJXK O    ",
"    XL :XPXI m m mXU.sXYXAXzXT.yXRXEXWXQ.9.8X!.f.f.fX~X^X/X(    ",
"      .^X)X_ m m mX`XYX'X]X' CX[X{X}X|o o.oXoo.f.foOo+o@.^o#    ",
"      ..o$o% m m m ]o&X]XAo*o=o-o; bo:o>o,o<.f.f.fo1o2o3o4      ",
"       Xo5o6o7 m m mo8 Wo9.& mo0oq K Jowoe.f.f.foOorotoy >      ",
"        ouoiopoaosodofogohojokol v cozox.f.f.f.focovob.k        ",
"        on.komoM.M.1.u.roNX&oB uoVoCoZ.f.f.f.foAoSoDoF X        ",
"          oG WoHoJoKoLoPoIoUoYoToR.f.f.f.foOoEoWoQo!o~          ",
"             F.jo^o/o(o).f.f.f.f.f.f.foOo_o`o'o]o! :            ",
"               %o[o{o}o|O O.OXOoOOO+O@O#O$O%O& %O*              ",
"                X(O=O-O;O:O>O,O<O1O2O3O4O5o!O= O                ",
"                    .. > $O6XK M MO7O8 : >O9                    ",
"                        O0OqOw : :OeOrOt                        ",
"                                                                ",
"                                                                "
};
